<?xml version="1.0" encoding="UTF-8" standalone="no" ?>
<!DOCTYPE svg PUBLIC "-//W3C//DTD SVG 1.1//EN" "http://www.w3.org/Graphics/SVG/1.1/DTD/svg11.dtd">
<svg xmlns="http://www.w3.org/2000/svg" xmlns:xlink="http://www.w3.org/1999/xlink" version="1.1" width="1080" height="1080" viewBox="0 0 1080 1080" xml:space="preserve">
<desc>Created with Fabric.js 5.2.4</desc>
<defs>
</defs>
<rect x="0" y="0" width="100%" height="100%" fill="transparent"></rect>
<g transform="matrix(1 0 0 1 540 540)" id="6af032ad-1448-4e27-9405-550ef2dffcde"  >
<rect style="stroke: none; stroke-width: 1; stroke-dasharray: none; stroke-linecap: butt; stroke-dashoffset: 0; stroke-linejoin: miter; stroke-miterlimit: 4; fill: rgb(255,255,255); fill-rule: nonzero; opacity: 1; visibility: hidden;" vector-effect="non-scaling-stroke"  x="-540" y="-540" rx="0" ry="0" width="1080" height="1080" />
</g>
<g transform="matrix(1 0 0 1 540 540)" id="0c60ef09-42ec-41bf-abd6-00576ad7e82d"  >
</g>
<g transform="matrix(1 0 0 1 -437.66 540)" id="Oval"  >
<circle style="stroke: rgb(31,194,114); stroke-width: 1; stroke-dasharray: none; stroke-linecap: butt; stroke-dashoffset: 0; stroke-linejoin: miter; stroke-miterlimit: 4; fill: rgb(28,85,41); fill-rule: nonzero; opacity: 1;" vector-effect="non-scaling-stroke"  cx="0" cy="0" r="256" />
</g>
<g transform="matrix(1 0 0 1 -444.19 534.14)"  >
<path style="stroke: rgb(255,255,255); stroke-width: 6; stroke-dasharray: none; stroke-linecap: butt; stroke-dashoffset: 0; stroke-linejoin: miter; stroke-miterlimit: 4; fill: rgb(179,94,94); fill-rule: nonzero; opacity: 1;" vector-effect="non-scaling-stroke"  transform=" translate(-244.13, -250.13)" d="M 362.807947 368.807947 L 244.122956 368.807947 C 178.699407 368.807947 125.456954 315.561812 125.456954 250.12177 C 125.456954 184.703089 178.699407 131.456954 244.124143 131.456954 C 309.565494 131.456954 362.807947 184.703089 362.807947 250.12177 L 362.807947 368.807947 Z" stroke-linecap="round" />
</g>
<g transform="matrix(1.77 0 0 1.77 670.25 540)" style="" id="2352519a-10a1-4e17-9338-816025b0123f"  >
		<text xml:space="preserve" font-family="Raleway" font-size="149" font-style="normal" font-weight="900" style="stroke: none; stroke-width: 1; stroke-dasharray: none; stroke-linecap: butt; stroke-dashoffset: 0; stroke-linejoin: miter; stroke-miterlimit: 4; fill: rgb(0,0,0); fill-rule: nonzero; opacity: 1; white-space: pre;" ><tspan x="-432" y="46.81" >TuMenteAI</tspan></text>
</g>
</svg>